<svg width="76" height="73" viewBox="0 0 76 73" fill="#C0C0C0" xmlns="http://www.w3.org/2000/svg">
<path d="M9.54911 51.8619C10.3284 51.2697 11.454 51.4087 12.0601 52.17C12.6662 52.9314 12.5239 54.0311 11.7447 54.6233L3.64279 60.7685L3.58094 68.8593L13.3403 68.3276L18.7395 59.9467C19.2652 59.131 20.366 58.8893 21.201 59.4029C22.0359 59.9165 22.2833 60.992 21.7576 61.8078L15.9007 70.9017C15.6101 71.3911 15.0782 71.7295 14.4535 71.7657L1.88016 72.4485C1.84306 72.4485 1.81213 72.4485 1.77503 72.4485C0.791669 72.4425 -0.00614892 71.663 3.57159e-05 70.7023L0.080436 60.0373C0.0371435 59.4754 0.278344 58.9013 0.766931 58.5267L9.54911 51.8619ZM24.9117 32.5139C28.9874 20.6163 34.4732 12.1871 42.1978 6.86975C50.2193 1.35903 60.5229 -0.73166 74.0239 0.223048C74.9578 0.289515 75.6691 1.03878 75.6876 1.93306C76.9926 16.2174 74.16 26.3446 68.1114 34.0185C62.2855 41.3963 53.559 46.3874 42.7173 50.5748V64.5148C42.7173 65.1976 42.3153 65.7897 41.7278 66.0798L30.6944 72.7386C29.8595 73.2461 28.7586 72.9923 28.2391 72.1706C28.103 71.953 28.0164 71.7174 27.9855 71.4817C25.5426 53.2396 22.945 52.3634 7.68135 47.2031C5.86307 46.5868 3.89017 45.9221 2.56047 45.4629C1.63278 45.1427 1.14419 44.1457 1.47198 43.2333C1.54001 43.0399 1.64515 42.8647 1.76884 42.7136L9.04197 32.5804C9.40687 32.0728 9.99441 31.813 10.5881 31.8372L24.9117 32.5139ZM52.3715 15.5407C54.4496 15.5407 56.3297 16.3624 57.6903 17.6918C59.0509 19.0211 59.892 20.858 59.892 22.8883C59.892 24.9186 59.0509 26.7555 57.6903 28.0848C56.3297 29.4142 54.4496 30.2359 52.3715 30.2359C50.2935 30.2359 48.4134 29.4142 47.0527 28.0848C45.6921 26.7555 44.851 24.9186 44.851 22.8883C44.851 20.858 45.6921 19.0211 47.0527 17.6918C48.4134 16.3624 50.2935 15.5407 52.3715 15.5407ZM55.9586 19.3837C55.0433 18.4894 53.7754 17.9335 52.3715 17.9335C50.9738 17.9335 49.706 18.4894 48.7844 19.3837C47.8691 20.278 47.3001 21.5167 47.3001 22.8883C47.3001 24.2539 47.8691 25.4926 48.7844 26.3929C49.6998 27.2872 50.9676 27.8431 52.3715 27.8431C53.7693 27.8431 55.0371 27.2872 55.9586 26.3929C56.874 25.4986 57.4429 24.2599 57.4429 22.8883C57.4429 21.5167 56.874 20.278 55.9586 19.3837ZM44.2511 9.72783C36.9471 14.7552 31.7705 22.985 27.9051 34.7617C27.6948 35.5412 26.9527 36.1032 26.093 36.0609L11.3921 35.3599L5.96203 42.9311C7.11237 43.3239 7.99677 43.626 8.84407 43.91C25.122 49.4086 28.505 50.5507 31.152 68.3638L39.1364 63.548V49.3905H39.1426C39.1426 48.6896 39.5817 48.031 40.2868 47.7651C51.0851 43.7046 59.7127 38.9431 65.2789 31.8855C70.5915 25.1482 73.1643 16.2053 72.2428 3.61287C60.3497 2.97237 51.2645 4.91199 44.2511 9.72783Z" />
</svg>
