<svg width="60" viewBox="25 -25 150 100" fill="#C0C0C0" xmlns="http://www.w3.org/2000/svg">
    <path d="M57.5491 51.8619C58.3284 51.2697 59.454 51.4087 60.0601 52.17C60.6662 52.9314 60.5239 54.0311 59.7447 54.6233L51.6428 60.7685L51.5809 68.8593L61.3403 68.3276L66.7395 59.9467C67.2652 59.131 68.366 58.8893 69.201 59.4029C70.0359 59.9165 70.2833 60.992 69.7576 61.8078L63.9007 70.9017C63.6101 71.3911 63.0782 71.7295 62.4535 71.7657L49.8802 72.4485C49.8431 72.4485 49.8121 72.4485 49.775 72.4485C48.7917 72.4425 47.9939 71.663 48 70.7023L48.0804 60.0373C48.0371 59.4754 48.2783 58.9013 48.7669 58.5267L57.5491 51.8619ZM72.9117 32.5139C76.9874 20.6163 82.4732 12.1871 90.1978 6.86975C98.2193 1.35903 108.523 -0.73166 122.024 0.223048C122.958 0.289515 123.669 1.03878 123.688 1.93306C124.993 16.2174 122.16 26.3446 116.111 34.0185C110.286 41.3963 101.559 46.3874 90.7173 50.5748V64.5148C90.7173 65.1976 90.3153 65.7897 89.7278 66.0798L78.6944 72.7386C77.8595 73.2461 76.7586 72.9923 76.2391 72.1706C76.103 71.953 76.0164 71.7174 75.9855 71.4817C73.5426 53.2396 70.945 52.3634 55.6814 47.2031C53.8631 46.5868 51.8902 45.9221 50.5605 45.4629C49.6328 45.1427 49.1442 44.1457 49.472 43.2333C49.54 43.0399 49.6451 42.8647 49.7688 42.7136L57.042 32.5804C57.4069 32.0728 57.9944 31.813 58.5881 31.8372L72.9117 32.5139ZM100.372 15.5407C102.45 15.5407 104.33 16.3624 105.69 17.6918C107.051 19.0211 107.892 20.858 107.892 22.8883C107.892 24.9186 107.051 26.7555 105.69 28.0848C104.33 29.4142 102.45 30.2359 100.372 30.2359C98.2935 30.2359 96.4134 29.4142 95.0527 28.0848C93.6921 26.7555 92.851 24.9186 92.851 22.8883C92.851 20.858 93.6921 19.0211 95.0527 17.6918C96.4134 16.3624 98.2935 15.5407 100.372 15.5407ZM103.959 19.3837C103.043 18.4894 101.775 17.9335 100.372 17.9335C98.9738 17.9335 97.706 18.4894 96.7844 19.3837C95.8691 20.278 95.3001 21.5167 95.3001 22.8883C95.3001 24.2539 95.8691 25.4926 96.7844 26.3929C97.6998 27.2872 98.9676 27.8431 100.372 27.8431C101.769 27.8431 103.037 27.2872 103.959 26.3929C104.874 25.4986 105.443 24.2599 105.443 22.8883C105.443 21.5167 104.874 20.278 103.959 19.3837ZM92.2511 9.72783C84.9471 14.7552 79.7705 22.985 75.9051 34.7617C75.6948 35.5412 74.9527 36.1032 74.093 36.0609L59.3921 35.3599L53.962 42.9311C55.1124 43.3239 55.9968 43.626 56.8441 43.91C73.122 49.4086 76.505 50.5507 79.152 68.3638L87.1364 63.548V49.3905H87.1426C87.1426 48.6896 87.5817 48.031 88.2868 47.7651C99.0851 43.7046 107.713 38.9431 113.279 31.8855C118.591 25.1482 121.164 16.2053 120.243 3.61287C108.35 2.97237 99.2645 4.91199 92.2511 9.72783Z" />
</svg>
